<?xml version="1.0" encoding="UTF-8" standalone="no"?>
<svg xmlns:dc="http://purl.org/dc/elements/1.1/" xmlns:cc="http://creativecommons.org/ns#" xmlns:rdf="http://www.w3.org/1999/02/22-rdf-syntax-ns#" xmlns:svg="http://www.w3.org/2000/svg" xmlns="http://www.w3.org/2000/svg" id="svg8" version="1.1" viewBox="0 0 52.916493 38.395805" height="38.395805mm" width="52.916492mm">
  <defs id="defs2">
    <clipPath id="clip0">
      <rect y="0" x="0" width="104" height="48" fill="#ffffff" id="rect863" />
    </clipPath>
  </defs>
  <metadata id="metadata5">
    <rdf:RDF>
      <cc:Work rdf:about="">
        <dc:format>image/svg+xml</dc:format>
        <dc:type rdf:resource="http://purl.org/dc/dcmitype/StillImage" />
        <dc:title></dc:title>
      </cc:Work>
    </rdf:RDF>
  </metadata>
  <g transform="translate(-25.681721,-32.05098)" id="layer1">
    <rect ry="0.98588061" rx="0.98588061" y="32.05098" x="25.681721" height="38.395805" width="52.916492" id="rect833" style="opacity:1;fill:#2f2f2f;fill-opacity:1;stroke-width:0.5165;stroke-linecap:round" />
    <g transform="matrix(0.32062318,0,0,0.32062318,31.189928,49.33767)" id="g886" style="fill:none">
      <g clip-path="url(#clip0)" id="g861">
        <path d="m 71.4061,9.88963 c 0.0012,-0.48657 0.1481,-0.96192 0.4223,-1.36624 0.2741,-0.40432 0.6633,-0.71954 1.1185,-0.906 0.4551,-0.18645 0.956,-0.23582 1.4395,-0.14187 0.4835,0.09394 0.9281,0.32699 1.2778,0.66982 0.3497,0.34283 0.5889,0.78013 0.6875,1.25687 0.0985,0.47674 0.0521,0.97159 -0.1335,1.42239 -0.1856,0.4507 -0.502,0.8372 -0.9096,1.1108 -0.4075,0.2735 -0.8879,0.422 -1.3806,0.4266 -0.3304,0.0024 -0.6579,-0.0599 -0.9638,-0.1831 -0.3058,-0.1232 -0.584,-0.3049 -0.8184,-0.5347 -0.2344,-0.2299 -0.4205,-0.5032 -0.5474,-0.8043 -0.127,-0.3011 -0.1923,-0.6241 -0.1923,-0.95027 z m 0,8.83007 c 0.0012,-0.4866 0.1481,-0.962 0.4223,-1.3663 0.2741,-0.4043 0.6633,-0.7195 1.1185,-0.906 0.4551,-0.1864 0.956,-0.2358 1.4395,-0.1419 0.4835,0.094 0.9281,0.327 1.2778,0.6699 0.3497,0.3428 0.5889,0.7801 0.6875,1.2568 0.0985,0.4768 0.0521,0.9717 -0.1335,1.4224 -0.1856,0.4508 -0.502,0.8372 -0.9096,1.1108 -0.4075,0.2736 -0.8879,0.422 -1.3806,0.4267 -0.3319,0.0023 -0.6609,-0.0605 -0.9679,-0.1848 -0.3071,-0.1243 -0.586,-0.3076 -0.8207,-0.5393 -0.2346,-0.2317 -0.4203,-0.5071 -0.5462,-0.8103 -0.1259,-0.3032 -0.1895,-0.628 -0.1871,-0.9557 z" fill="#007eff" id="path843" />
        <path d="m 49.3708,22.8756 -2.8677,-4.8859 -2.8915,4.8859 h -4.4834 l 5.1213,-8.6887 -4.9007,-8.25312 h 4.4595 l 2.6948,4.47972 2.6471,-4.47972 h 4.4595 l -4.8768,8.24132 5.1213,8.6888 z" fill="#ffffff" id="path845" />
        <path d="m 53.9555,19.0257 3.3804,-1.9543 c 0.2573,0.7222 0.7452,1.3424 1.3904,1.7671 0.6452,0.4247 1.4126,0.6309 2.1868,0.5875 1.8661,0 2.3311,-0.724 2.3311,-1.3775 0,-1.0419 -0.9837,-1.454 -3.5771,-2.1545 -2.5935,-0.7005 -5.0498,-1.9132 -5.0498,-5.1508 0,-3.23769 2.7961,-5.15675 5.7592,-5.15675 1.3198,-0.05346 2.6258,0.28252 3.7514,0.96507 1.1256,0.68255 2.0197,1.68072 2.5683,2.86715 l -3.3089,1.91313 c -0.5962,-1.2067 -1.3951,-1.96022 -2.981,-1.96022 -1.2281,0 -1.8362,0.58867 -1.8362,1.28332 0,0.777 0.4173,1.3068 3.0882,2.1074 2.671,0.8006 5.5148,1.6659 5.5148,5.2509 0,3.2671 -2.6471,5.2038 -6.3733,5.2038 -3.5652,0 -5.8904,-1.6953 -6.8443,-4.1913 z" fill="#ffffff" id="path847" />
        <path d="m 38.6393,34.7961 c -0.0346,-1.1688 0.173,-2.3323 0.6102,-3.4191 0.4371,-1.0868 1.0946,-2.0739 1.932,-2.9007 0.8375,-0.8269 1.8372,-1.4761 2.9378,-1.9077 1.1007,-0.4317 2.2791,-0.6367 3.4629,-0.6025 1.4607,-0.0149 2.901,0.3397 4.1837,1.0301 1.2826,0.6904 2.3648,1.6936 3.1435,2.914 l -3.3804,1.9367 c -0.4142,-0.6648 -1.0005,-1.2084 -1.6985,-1.5747 -0.698,-0.3664 -1.4824,-0.5421 -2.2722,-0.5092 -3.0406,0 -5.002,2.0074 -5.002,5.0331 0,3.0258 1.9614,5.0332 5.002,5.0332 0.7898,0.0373 1.5752,-0.136 2.2738,-0.5016 0.6987,-0.3656 1.2848,-0.9101 1.6969,-1.5764 l 3.3804,1.9367 c -0.7794,1.2234 -1.8658,2.2272 -3.1537,2.9141 -1.288,0.6869 -2.7338,1.0336 -4.1974,1.0064 -1.18,0.03 -2.3539,-0.1775 -3.4501,-0.6099 -1.0962,-0.4323 -2.0919,-1.0804 -2.9263,-1.9048 -0.8344,-0.8245 -1.4901,-1.808 -1.9273,-2.8907 -0.4371,-1.0826 -0.6465,-2.2418 -0.6153,-3.407 z" fill="#ffffff" id="path849" />
        <path d="m 55.7679,34.7962 c 0,-1.7464 0.5245,-3.4536 1.5072,-4.9057 0.9826,-1.4521 2.3793,-2.5839 4.0134,-3.2522 1.6341,-0.6683 3.4322,-0.8432 5.167,-0.5025 1.7347,0.3407 3.3282,1.1817 4.5789,2.4166 1.2507,1.2349 2.1024,2.8083 2.4475,4.5211 0.345,1.7129 0.1679,3.4883 -0.5089,5.1018 -0.6769,1.6134 -1.8231,2.9925 -3.2938,3.9628 -1.4706,0.9702 -3.1996,1.4881 -4.9684,1.4881 -1.1782,0.0134 -2.3471,-0.2058 -3.4383,-0.6448 -1.0911,-0.439 -2.0824,-1.0889 -2.9155,-1.9116 -0.8332,-0.8226 -1.4914,-1.8014 -1.936,-2.8787 -0.4446,-1.0774 -0.6667,-2.2316 -0.6531,-3.3949 z m 13.9211,0 C 69.7122,34.1336 69.6001,33.4733 69.3593,32.8544 69.1185,32.2356 68.754,31.6709 68.2875,31.1941 67.821,30.7174 67.262,30.3382 66.644,30.0792 c -0.6181,-0.259 -1.2826,-0.3924 -1.9541,-0.3924 -0.6714,0 -1.3359,0.1334 -1.954,0.3924 -0.618,0.259 -1.177,0.6382 -1.6435,1.1149 -0.4665,0.4768 -0.831,1.0415 -1.0718,1.6603 -0.2408,0.6189 -0.3529,1.2792 -0.3297,1.9418 -0.0232,0.6625 0.0889,1.3229 0.3297,1.9417 0.2408,0.6189 0.6053,1.1835 1.0718,1.6603 0.4665,0.4768 1.0255,0.856 1.6435,1.1149 0.6181,0.259 1.2826,0.3925 1.954,0.3925 0.6715,0 1.336,-0.1335 1.9541,-0.3925 0.618,-0.2589 1.177,-0.6381 1.6435,-1.1149 0.4665,-0.4768 0.831,-1.0414 1.0718,-1.6603 0.2408,-0.6188 0.3529,-1.2792 0.3297,-1.9417 z" fill="#ffffff" id="path851" />
        <path d="m 91.0088,34.7962 c 0,4.7917 -3.5771,8.4709 -8.3466,8.4709 H 75.8179 V 26.3253 h 6.8622 c 4.7278,0 8.3287,3.6968 8.3287,8.4709 z m -3.7738,0 c 0,-2.9021 -1.8602,-4.7094 -4.5549,-4.7094 h -2.9452 v 9.454 h 2.9452 c 2.6947,0 4.5549,-1.8366 4.5549,-4.7446 z" fill="#ffffff" id="path853" />
        <path d="m 104,39.5408 v 3.7263 H 93.2149 V 26.3253 h 10.6601 v 3.7321 h -6.7372 v 2.8021 h 6.1292 v 3.6791 h -6.1292 v 3.0022 z" fill="#ffffff" id="path855" />
        <path d="m 22.4169,40.2059 v -8.7888 c 0,-2.9433 -1.6932,-5.2627 -4.388,-4.9507 v -5.2333 c 2.6948,0.312 4.388,-2.0014 4.388,-4.9742 V 7.47597 c 0,-8.06476 4.7397,-7.476091255 9.4258,-7.476091255 V 4.38546 c -2.6948,-0.312 -4.388,0.12362 -4.388,3.09051 v 8.78293 c 0,3.4084 -1.0671,6.0044 -3.3208,7.5526 2.2537,1.6071 3.3208,4.2031 3.3208,7.6056 v 8.7888 c 0,2.9434 1.6932,3.4025 4.388,3.0905 v 4.7094 c -4.066,-0.0059 -9.4258,0.2649 -9.4258,-7.7999 z" fill="#ffffff" id="path857" />
        <path d="m 0,47.9964 v -4.7093 c 2.69479,0.312 4.38798,-0.1237 4.38798,-3.0906 v -8.7829 c 0,-3.4025 1.06123,-5.9985 3.3208,-7.6056 -2.25957,-1.5482 -3.3208,-4.1207 -3.3208,-7.5526 V 7.47246 C 4.38798,4.52912 2.69479,4.06996 0,4.38195 v -4.38558077 c 4.68608,0 9.42582,-0.58866823 9.42582,7.47609077 v 8.78294 c 0,2.9728 1.68718,5.298 4.38198,4.9742 v 5.2569 c -2.6948,-0.312 -4.38198,1.9838 -4.38198,4.9507 v 8.7652 c 0,8.0648 -5.35978,7.794 -9.42582,7.794 z" fill="#ffffff" id="path859" />
      </g>
    </g>
    <g style="font-style:normal;font-variant:normal;font-weight:normal;font-stretch:normal;font-size:8.58097px;line-height:1.25;font-family:Franchise;-inkscape-font-specification:Franchise;letter-spacing:0.160893px;word-spacing:0px;fill:#ffffff;fill-opacity:1;stroke:none;stroke-width:0.160893" id="text890" aria-label="Get Support via">
      <path id="path848" style="font-style:normal;font-variant:normal;font-weight:normal;font-stretch:normal;font-family:Franchise;-inkscape-font-specification:Franchise;fill:#ffffff;stroke-width:0.160893" d="m 32.640112,34.958965 q 0.223105,0 0.420467,0.08581 0.197363,0.08581 0.343239,0.231686 0.145877,0.145877 0.231686,0.343239 0.08581,0.197362 0.08581,0.420468 v 0.274591 q 0,0.120133 -0.111552,0.154457 l -0.780869,0.283172 q -0.111552,0.03432 -0.111552,-0.08581 v -0.583506 q 0,-0.08581 -0.06007,-0.145876 -0.06007,-0.06007 -0.145877,-0.06007 h -0.06865 q -0.08581,0 -0.145877,0.06007 -0.06007,0.06007 -0.06007,0.145876 v 3.878599 q 0,0.08581 0.06007,0.145876 0.06007,0.06007 0.145877,0.06007 h 0.06865 q 0.08581,0 0.145877,-0.06007 0.06007,-0.06007 0.06007,-0.145876 v -1.527413 h -0.240268 v -0.97823 h 1.124108 q 0.120133,0 0.120133,0.120133 v 2.428415 q 0,0.223105 -0.08581,0.420467 -0.08581,0.197362 -0.231686,0.343239 -0.145876,0.145876 -0.343239,0.231686 -0.197362,0.08581 -0.420467,0.08581 h -0.326077 q -0.223105,0 -0.420467,-0.08581 -0.197363,-0.08581 -0.343239,-0.231686 -0.145877,-0.145877 -0.231686,-0.343239 -0.08581,-0.197362 -0.08581,-0.420467 v -3.964408 q 0,-0.223106 0.08581,-0.420468 0.08581,-0.197362 0.231686,-0.343239 0.145876,-0.145876 0.343239,-0.231686 0.197362,-0.08581 0.420467,-0.08581 h 0.326077 z" />
      <path id="path850" style="font-style:normal;font-variant:normal;font-weight:normal;font-stretch:normal;font-family:Franchise;-inkscape-font-specification:Franchise;fill:#ffffff;stroke-width:0.160893" d="m 36.550878,40.021738 q 0.120133,0 0.120133,0.120133 v 0.763706 q 0,0.120134 -0.120133,0.120134 h -1.862071 q -0.120133,0 -0.120133,-0.120134 v -4.908314 q 0,-0.120134 0.120133,-0.120134 h 1.862071 q 0.120133,0 0.120133,0.120134 v 0.763706 q 0,0.120134 -0.120133,0.120134 h -0.978231 v 0.97823 h 0.849516 q 0.120134,0 0.120134,0.120134 v 0.763706 q 0,0.120134 -0.120134,0.120134 h -0.849516 v 1.158431 h 0.978231 z" />
      <path id="path852" style="font-style:normal;font-variant:normal;font-weight:normal;font-stretch:normal;font-family:Franchise;-inkscape-font-specification:Franchise;fill:#ffffff;stroke-width:0.160893" d="m 39.72369,35.877129 q 0.120134,0 0.120134,0.120134 v 0.763706 q 0,0.120134 -0.120134,0.120134 h -0.609249 v 4.024474 q 0,0.120134 -0.120133,0.120134 h -0.763706 q -0.0429,0 -0.08581,-0.03432 -0.03432,-0.03432 -0.03432,-0.08581 V 36.881103 H 37.5098 q -0.120133,0 -0.120133,-0.120134 v -0.763706 q 0,-0.120134 0.120133,-0.120134 h 2.21389 z" />
      <path id="path854" style="font-style:normal;font-variant:normal;font-weight:normal;font-stretch:normal;font-family:Franchise;-inkscape-font-specification:Franchise;fill:#ffffff;stroke-width:0.160893" d="m 43.177518,34.958965 q 0.223105,0 0.420467,0.08581 0.197363,0.08581 0.343239,0.231686 0.145877,0.145877 0.231686,0.343239 0.08581,0.197362 0.08581,0.420468 v 0.326076 q 0,0.120134 -0.111553,0.154458 l -0.780868,0.205943 q -0.111552,0.03432 -0.111552,-0.08581 v -0.557763 q 0,-0.08581 -0.06007,-0.145876 -0.06007,-0.06007 -0.145877,-0.06007 h -0.06865 q -0.08581,0 -0.145877,0.06007 -0.06007,0.06007 -0.06007,0.145876 v 0.780869 q 0.0086,0.09439 0.03432,0.163038 0.02574,0.06865 0.09439,0.137296 l 1.124107,0.840935 q 0.137295,0.120133 0.171619,0.248848 0.0429,0.120133 0.06007,0.274591 v 1.475927 q 0,0.223105 -0.08581,0.420467 -0.08581,0.197362 -0.231686,0.343239 -0.145876,0.145876 -0.343239,0.231686 -0.197362,0.08581 -0.420467,0.08581 h -0.326077 q -0.223105,0 -0.420467,-0.08581 -0.197363,-0.08581 -0.343239,-0.231686 -0.145877,-0.145877 -0.231686,-0.343239 -0.08581,-0.197362 -0.08581,-0.420467 v -0.823773 q 0,-0.120134 0.111552,-0.154458 l 0.780869,-0.205943 q 0.111552,-0.03432 0.111552,0.08581 v 1.055459 q 0,0.08581 0.06007,0.145876 0.06007,0.06007 0.145877,0.06007 h 0.06865 q 0.08581,0 0.145877,-0.06007 0.06007,-0.06007 0.06007,-0.145876 v -1.132688 q -0.0086,-0.111553 -0.03432,-0.197363 -0.02574,-0.08581 -0.102972,-0.154457 l -1.106945,-0.849516 q -0.128715,-0.120134 -0.188781,-0.240267 -0.05149,-0.120134 -0.05149,-0.317496 v -1.029716 q 0,-0.223106 0.08581,-0.420468 0.08581,-0.197362 0.231686,-0.343239 0.145876,-0.145876 0.343239,-0.231686 0.197362,-0.08581 0.420467,-0.08581 h 0.326077 z" />
      <path id="path856" style="font-style:normal;font-variant:normal;font-weight:normal;font-stretch:normal;font-family:Franchise;-inkscape-font-specification:Franchise;fill:#ffffff;stroke-width:0.160893" d="m 47.34571,35.877129 q 0.120134,0 0.120134,0.120134 v 4.007313 q 0,0.223105 -0.08581,0.420467 -0.08581,0.197362 -0.231686,0.343239 -0.145877,0.145876 -0.343239,0.231686 -0.197362,0.08581 -0.420467,0.08581 h -0.326077 q -0.223105,0 -0.420468,-0.08581 -0.197362,-0.08581 -0.343239,-0.231686 -0.145876,-0.145877 -0.231686,-0.343239 -0.08581,-0.197362 -0.08581,-0.420467 v -4.007313 q 0,-0.120134 0.120133,-0.120134 h 0.763706 q 0.120134,0 0.120134,0.120134 v 3.964408 q 0,0.08581 0.06007,0.145876 0.06007,0.06007 0.145876,0.06007 h 0.06865 q 0.08581,0 0.145877,-0.06007 0.06007,-0.06007 0.06007,-0.145876 v -3.964408 q 0,-0.120134 0.120134,-0.120134 h 0.763706 z" />
      <path id="path858" style="font-style:normal;font-variant:normal;font-weight:normal;font-stretch:normal;font-family:Franchise;-inkscape-font-specification:Franchise;fill:#ffffff;stroke-width:0.160893" d="m 49.720482,35.877129 q 0.223105,0 0.420467,0.08581 0.197363,0.08581 0.343239,0.231686 0.145877,0.145877 0.231686,0.343239 0.08581,0.197362 0.08581,0.420467 V 38.0996 q 0,0.223106 -0.08581,0.420468 -0.08581,0.197362 -0.231686,0.343239 -0.145876,0.145876 -0.343239,0.231686 -0.197362,0.08581 -0.420467,0.08581 h -0.403306 v 1.724774 q 0,0.120134 -0.120133,0.120134 h -0.763707 q -0.120133,0 -0.120133,-0.120134 v -4.908314 q 0,-0.120134 0.120133,-0.120134 z m 0.07723,1.124107 q 0,-0.08581 -0.06007,-0.145876 -0.06007,-0.06007 -0.145877,-0.06007 h -0.274591 v 1.467346 h 0.274591 q 0.08581,0 0.145877,-0.06007 0.06007,-0.06007 0.06007,-0.145876 z" />
      <path id="path860" style="font-style:normal;font-variant:normal;font-weight:normal;font-stretch:normal;font-family:Franchise;-inkscape-font-specification:Franchise;fill:#ffffff;stroke-width:0.160893" d="m 52.927616,35.877129 q 0.223105,0 0.420468,0.08581 0.197362,0.08581 0.343238,0.231686 0.145877,0.145877 0.231687,0.343239 0.08581,0.197362 0.08581,0.420467 V 38.0996 q 0,0.223106 -0.08581,0.420468 -0.08581,0.197362 -0.231687,0.343239 -0.145876,0.145876 -0.343238,0.231686 -0.197363,0.08581 -0.420468,0.08581 h -0.403305 v 1.724774 q 0,0.120134 -0.120134,0.120134 h -0.763706 q -0.120134,0 -0.120134,-0.120134 v -4.908314 q 0,-0.120134 0.120134,-0.120134 z m 0.07723,1.124107 q 0,-0.08581 -0.06007,-0.145876 -0.06007,-0.06007 -0.145876,-0.06007 h -0.274591 v 1.467346 h 0.274591 q 0.08581,0 0.145876,-0.06007 0.06007,-0.06007 0.06007,-0.145876 z" />
      <path id="path862" style="font-style:normal;font-variant:normal;font-weight:normal;font-stretch:normal;font-family:Franchise;-inkscape-font-specification:Franchise;fill:#ffffff;stroke-width:0.160893" d="m 57.130141,40.004576 q 0,0.223105 -0.08581,0.420467 -0.08581,0.197362 -0.231686,0.343239 -0.145876,0.145876 -0.343239,0.231686 -0.197362,0.08581 -0.420467,0.08581 h -0.326077 q -0.223105,0 -0.420468,-0.08581 -0.197362,-0.08581 -0.343238,-0.231686 -0.145877,-0.145877 -0.231687,-0.343239 -0.08581,-0.197362 -0.08581,-0.420467 v -3.106311 q 0,-0.223106 0.08581,-0.420468 0.08581,-0.197362 0.231687,-0.343239 0.145876,-0.145876 0.343238,-0.231686 0.197363,-0.08581 0.420468,-0.08581 h 0.326077 q 0.223105,0 0.420467,0.08581 0.197363,0.08581 0.343239,0.231686 0.145877,0.145877 0.231686,0.343239 0.08581,0.197362 0.08581,0.420468 z m -1.003974,-3.063407 q 0,-0.08581 -0.06007,-0.145876 -0.06007,-0.06007 -0.145877,-0.06007 h -0.06865 q -0.08581,0 -0.145876,0.06007 -0.06007,0.06007 -0.06007,0.145876 v 3.020502 q 0,0.08581 0.06007,0.145876 0.06007,0.06007 0.145876,0.06007 h 0.06865 q 0.08581,0 0.145877,-0.06007 0.06007,-0.06007 0.06007,-0.145876 z" />
      <path id="path864" style="font-style:normal;font-variant:normal;font-weight:normal;font-stretch:normal;font-family:Franchise;-inkscape-font-specification:Franchise;fill:#ffffff;stroke-width:0.160893" d="m 58.981475,40.905577 q 0,0.120134 -0.128714,0.120134 h -0.763707 q -0.111552,0 -0.111552,-0.120134 v -4.908314 q 0,-0.120134 0.120133,-0.120134 h 1.287146 q 0.223105,0 0.420467,0.08581 0.197363,0.08581 0.343239,0.231686 0.145877,0.145877 0.231686,0.343239 0.08581,0.197362 0.08581,0.420467 v 1.05546 q 0,0.317496 -0.188781,0.574925 -0.188782,0.248848 -0.454792,0.386143 l 0.815192,1.930718 q 0.02574,0.120134 -0.08581,0.120134 h -0.780868 q -0.05149,0 -0.102972,-0.03432 -0.0429,-0.03432 -0.06007,-0.08581 l -0.626411,-1.587479 z m 0,-2.728748 h 0.274591 q 0.08581,0 0.145877,-0.06007 0.06007,-0.06007 0.06007,-0.145876 v -0.96965 q 0,-0.08581 -0.06007,-0.145876 -0.06007,-0.06007 -0.145877,-0.06007 h -0.274591 z" />
      <path id="path866" style="font-style:normal;font-variant:normal;font-weight:normal;font-stretch:normal;font-family:Franchise;-inkscape-font-specification:Franchise;fill:#ffffff;stroke-width:0.160893" d="m 63.398512,35.877129 q 0.120134,0 0.120134,0.120134 v 0.763706 q 0,0.120134 -0.120134,0.120134 h -0.609249 v 4.024474 q 0,0.120134 -0.120133,0.120134 h -0.763707 q -0.0429,0 -0.08581,-0.03432 -0.03432,-0.03432 -0.03432,-0.08581 v -4.024474 h -0.600668 q -0.120134,0 -0.120134,-0.120134 v -0.763706 q 0,-0.120134 0.120134,-0.120134 h 2.21389 z" />
      <path id="path868" style="font-style:normal;font-variant:normal;font-weight:normal;font-stretch:normal;font-family:Franchise;-inkscape-font-specification:Franchise;fill:#ffffff;stroke-width:0.160893" d="m 68.233878,35.877129 q 0.120133,0 0.102971,0.120134 l -1.012554,4.908314 q -0.01716,0.120134 -0.137296,0.120134 h -0.755125 q -0.120133,0 -0.137295,-0.120134 l -1.012555,-4.908314 q -0.01716,-0.120134 0.102972,-0.120134 h 0.926745 q 0.111552,0 0.128714,0.120134 l 0.35182,3.209282 h 0.03432 l 0.35182,-3.209282 q 0.01716,-0.120134 0.128714,-0.120134 h 0.926745 z" />
      <path id="path870" style="font-style:normal;font-variant:normal;font-weight:normal;font-stretch:normal;font-family:Franchise;-inkscape-font-specification:Franchise;fill:#ffffff;stroke-width:0.160893" d="m 69.982234,40.905577 q 0,0.120134 -0.120133,0.120134 h -0.763706 q -0.120134,0 -0.120134,-0.120134 v -4.908314 q 0,-0.120134 0.120134,-0.120134 h 0.763706 q 0.120133,0 0.120133,0.120134 z" />
      <path id="path872" style="font-style:normal;font-variant:normal;font-weight:normal;font-stretch:normal;font-family:Franchise;-inkscape-font-specification:Franchise;fill:#ffffff;stroke-width:0.160893" d="m 73.403887,40.905577 q 0.01716,0.120134 -0.102971,0.120134 h -0.780868 q -0.111553,0 -0.128715,-0.120134 l -0.06865,-0.840935 h -0.53202 l -0.06865,0.840935 q -0.01716,0.120134 -0.128714,0.120134 h -0.780868 q -0.120134,0 -0.102972,-0.120134 l 0.643573,-4.908314 q 0.01716,-0.120134 0.137295,-0.120134 h 1.132688 q 0.120134,0 0.137296,0.120134 z m -1.14985,-1.802003 -0.163038,-1.896395 h -0.06865 l -0.163038,1.896395 z" />
    </g>
    <path id="path896" d="M 31.189928,43.652224 H 72.852326" style="fill:none;stroke:#ffffff;stroke-width:0.322152;stroke-linecap:butt;stroke-linejoin:miter;stroke-miterlimit:4;stroke-dasharray:none;stroke-opacity:1" />
  </g>
</svg>
