<?xml version="1.0" encoding="UTF-8"?>
<svg width="490px" height="106px" viewBox="0 0 490 106" version="1.1" xmlns="http://www.w3.org/2000/svg" xmlns:xlink="http://www.w3.org/1999/xlink">
    <!-- Generator: Sketch 62 (91390) - https://sketch.com -->
    <title>Browserstack_Logo_horizontal_White Background</title>
    <desc>Created with Sketch.</desc>
    <defs>
        <radialGradient cx="49.8655914%" cy="49.9462366%" fx="49.8655914%" fy="49.9462366%" r="49.9193548%" id="radialGradient-1">
            <stop stop-color="#797979" offset="0%"></stop>
            <stop stop-color="#4C4C4C" offset="100%"></stop>
        </radialGradient>
    </defs>
    <g id="Page-1" stroke="none" stroke-width="1" fill="none" fill-rule="evenodd">
        <g id="Browserstack_Logo_horizontal_White-Background" fill-rule="nonzero">
            <circle id="Oval" fill="#F4B960" cx="52.8" cy="52.8" r="52.8"></circle>
            <circle id="Oval" fill="#E66F32" cx="47.5" cy="47.5" r="47.5"></circle>
            <circle id="Oval" fill="#E43C41" cx="53.8" cy="41.1" r="41.1"></circle>
            <circle id="Oval" fill="#BDD041" cx="57.1" cy="44.4" r="37.8"></circle>
            <circle id="Oval" fill="#6DB54C" cx="54.3" cy="47.2" r="35.1"></circle>
            <circle id="Oval" fill="#AEDAE6" cx="48.8" cy="41.7" r="29.5"></circle>
            <circle id="Oval" fill="#56B8DE" cx="53.6" cy="36.8" r="24.7"></circle>
            <circle id="Oval" fill="#00B1D5" cx="56.6" cy="39.9" r="21.7"></circle>
            <circle id="Oval" fill="url(#radialGradient-1)" cx="53.5" cy="43" r="18.6"></circle>
            <circle id="Oval" fill="#221F1F" cx="53.5" cy="43" r="18.6"></circle>
            <ellipse id="Oval" fill="#FFFFFF" transform="translate(60.849020, 36.186310) rotate(-65.831561) translate(-60.849020, -36.186310) " cx="60.84902" cy="36.18631" rx="5.699714" ry="3.69981435"></ellipse>
            <path d="M122.5,32.6 C122.5,32.3 122.8,32 123.1,32 C123.1,32 123.1,32 123.2,32 L139.8,32 C149.3,32 153.7,36.4 153.7,43 C153.9,46.7 151.9,50.2 148.5,51.8 L148.5,51.9 C152.2,53.4 154.6,57.1 154.5,61.2 C154.5,69.4 148.9,73.4 139.1,73.4 L123.1,73.4 C122.8,73.4 122.5,73.2 122.4,72.9 C122.4,72.9 122.4,72.9 122.4,72.8 L122.5,32.6 L122.5,32.6 Z M139.6,49.1 C143.5,49.1 146,46.9 146,43.7 C146,40.5 143.6,38.2 139.6,38.2 L130.7,38.2 C130.5,38.2 130.3,38.3 130.3,38.5 C130.3,38.5 130.3,38.5 130.3,38.6 L130.3,48.8 C130.3,49 130.4,49.1 130.6,49.2 C130.6,49.2 130.6,49.2 130.7,49.2 L139.6,49.2 L139.6,49.1 Z M130.6,66.9 L139.9,66.9 C144.2,66.9 146.7,64.6 146.7,61.1 C146.7,57.6 144.3,55.4 140,55.4 L130.7,55.4 C130.5,55.4 130.3,55.5 130.3,55.7 C130.3,55.7 130.3,55.7 130.3,55.8 L130.3,66.5 C130.3,66.8 130.4,66.9 130.6,66.9 C130.6,66.9 130.6,66.9 130.6,66.9 L130.6,66.9 Z" id="Shape" fill="#333333"></path>
            <path d="M159.9,73.3 C159.6,73.3 159.3,73.1 159.2,72.8 C159.2,72.8 159.2,72.8 159.2,72.7 L159.2,44.6 C159.2,44.3 159.5,44 159.8,44 C159.8,44 159.8,44 159.9,44 L165.9,44 C166.2,44 166.5,44.2 166.6,44.5 C166.6,44.5 166.6,44.5 166.6,44.6 L166.6,47.1 L166.7,47.1 C168.2,44.9 170.9,43.3 174.9,43.3 C177.3,43.3 179.7,44.1 181.5,45.7 C181.8,46 181.9,46.2 181.6,46.5 L178.1,50.6 C177.9,50.9 177.5,51 177.2,50.8 C177.2,50.8 177.2,50.8 177.1,50.8 C175.7,49.9 174.1,49.4 172.4,49.4 C168.3,49.4 166.4,52.1 166.4,56.8 L166.4,72.7 C166.4,73 166.1,73.3 165.8,73.3 C165.8,73.3 165.8,73.3 165.7,73.3 L159.9,73.3 L159.9,73.3 Z" id="Path" fill="#333333"></path>
            <path d="M182.9,65.8 C182.1,63.5 181.8,61 181.8,58.6 C181.7,56.1 182.1,53.7 182.9,51.4 C184.7,46.3 189.5,43.3 196,43.3 C202.5,43.3 207.2,46.3 209,51.4 C209.8,53.7 210.1,56.2 210.1,58.6 C210.2,61.1 209.8,63.5 209,65.8 C207.2,70.9 202.4,73.9 196,73.9 C189.6,73.9 184.7,71 182.9,65.8 Z M201.9,64 C202.4,62.3 202.7,60.4 202.6,58.6 C202.7,56.8 202.5,54.9 201.9,53.2 C201,50.7 198.6,49.2 196,49.4 C193.4,49.2 190.9,50.8 190,53.2 C189.5,55 189.2,56.8 189.3,58.6 C189.2,60.4 189.4,62.3 190,64 C190.9,66.5 193.4,68 196,67.8 C198.6,68 201,66.5 201.9,64 L201.9,64 Z" id="Shape" fill="#333333"></path>
            <path d="M241.9,73.3 C241.5,73.3 241.2,73 241.1,72.7 L235,53.9 L234.9,53.9 L228.7,72.6 C228.6,73 228.3,73.2 227.9,73.2 L222.5,73.2 C222.1,73.2 221.8,72.9 221.7,72.6 L211.7,44.5 C211.6,44.3 211.7,44 211.9,43.9 C212,43.9 212.1,43.8 212.2,43.9 L218.5,43.9 C218.9,43.9 219.3,44.1 219.4,44.5 L225.5,63.8 L225.6,63.8 L231.6,44.5 C231.7,44.1 232.1,43.9 232.5,43.9 L237.2,43.9 C237.6,43.9 237.9,44.1 238.1,44.5 L244.5,63.8 L244.6,63.8 L250.4,44.5 C250.5,44.1 250.9,43.8 251.3,43.9 L257.6,43.9 C257.8,43.8 258.1,44 258.1,44.2 C258.1,44.3 258.1,44.4 258.1,44.5 L248.1,72.6 C248,73 247.7,73.2 247.3,73.2 L241.9,73.3 L241.9,73.3 Z" id="Path" fill="#333333"></path>
            <path d="M259.3,69.3 C259.1,69.1 259,68.7 259.2,68.5 C259.2,68.5 259.2,68.5 259.3,68.4 L263,64.8 C263.3,64.6 263.7,64.6 263.9,64.8 C266.5,66.9 269.8,68.1 273.2,68.1 C277.1,68.1 279.1,66.6 279.1,64.6 C279.1,62.8 278,61.7 273.9,61.4 L270.5,61.1 C264.1,60.5 260.8,57.5 260.8,52.5 C260.8,46.8 265.2,43.3 273.1,43.3 C277.3,43.2 281.5,44.5 285,46.9 C285.3,47.1 285.3,47.4 285.2,47.7 C285.2,47.7 285.2,47.7 285.2,47.8 L282,51.4 C281.8,51.7 281.4,51.7 281.1,51.5 C278.6,50 275.7,49.1 272.8,49.1 C269.7,49.1 268,50.4 268,52.1 C268,53.8 269.1,54.8 273.2,55.2 L276.6,55.5 C283.2,56.1 286.4,59.3 286.4,64.1 C286.4,69.9 281.8,74 273.1,74 C268,74 263.2,72.4 259.3,69.3 Z" id="Path" fill="#333333"></path>
            <path d="M291.2,65.8 C290.4,63.5 290,61.1 290.1,58.6 C290,56.1 290.4,53.7 291.1,51.4 C292.9,46.3 297.7,43.3 304,43.3 C310.5,43.3 315.2,46.4 317,51.4 C317.7,53.5 318,55.5 318,60.2 C318,60.5 317.7,60.8 317.4,60.8 C317.4,60.8 317.3,60.8 317.3,60.8 L297.8,60.8 C297.6,60.8 297.4,60.9 297.4,61.1 C297.4,61.1 297.4,61.1 297.4,61.2 C297.4,62 297.6,62.7 297.9,63.4 C298.9,66.3 301.4,67.8 305,67.8 C307.7,67.9 310.4,66.9 312.4,65 C312.6,64.7 313.1,64.6 313.4,64.9 C313.4,64.9 313.4,64.9 313.4,64.9 L317.3,68.1 C317.5,68.2 317.6,68.6 317.5,68.8 C317.5,68.9 317.4,68.9 317.4,68.9 C314.7,71.8 310.2,73.9 304.4,73.9 C297.8,73.9 293,70.9 291.2,65.8 Z M310.4,52.8 C309.5,50.4 307.2,49 304.2,49 C301.2,49 298.8,50.4 298,52.8 C297.7,53.6 297.6,54.4 297.6,55.3 C297.6,55.5 297.7,55.6 297.9,55.7 C297.9,55.7 297.9,55.7 298,55.7 L310.4,55.7 C310.6,55.7 310.8,55.6 310.8,55.4 C310.8,55.4 310.8,55.4 310.8,55.3 C310.8,54.5 310.6,53.6 310.4,52.8 L310.4,52.8 Z" id="Shape" fill="#333333"></path>
            <path d="M323.6,73.3 C323.3,73.3 323,73.1 322.9,72.8 C322.9,72.8 322.9,72.8 322.9,72.7 L322.9,44.6 C322.9,44.3 323.2,44 323.5,44 C323.5,44 323.5,44 323.6,44 L329.6,44 C329.9,44 330.2,44.2 330.3,44.5 C330.3,44.5 330.3,44.5 330.3,44.6 L330.3,47.1 L330.4,47.1 C331.9,44.9 334.6,43.3 338.6,43.3 C341,43.3 343.4,44.1 345.2,45.7 C345.5,46 345.6,46.2 345.3,46.5 L341.8,50.6 C341.6,50.9 341.2,51 340.9,50.8 C340.9,50.8 340.9,50.8 340.8,50.8 C339.4,49.9 337.8,49.4 336.1,49.4 C332,49.4 330.1,52.1 330.1,56.8 L330.1,72.7 C330.1,73 329.8,73.3 329.5,73.3 C329.5,73.3 329.5,73.3 329.4,73.3 L323.6,73.3 L323.6,73.3 Z" id="Path" fill="#333333"></path>
            <path d="M346.5,68.5 C346.2,68.3 346.1,67.9 346.3,67.6 C346.3,67.6 346.3,67.6 346.3,67.6 L350.4,63.2 C350.6,62.9 351,62.9 351.3,63.1 C351.3,63.1 351.3,63.1 351.3,63.1 C354.8,65.8 359,67.3 363.4,67.5 C368.7,67.5 371.8,65 371.8,61.5 C371.8,58.5 369.8,56.6 363.7,55.8 L361.3,55.5 C352.7,54.4 347.8,50.6 347.8,43.7 C347.8,36.2 353.7,31.3 362.9,31.3 C368,31.2 373,32.7 377.4,35.5 C377.7,35.6 377.8,35.9 377.6,36.2 C377.6,36.3 377.5,36.3 377.5,36.4 L374.4,40.9 C374.2,41.2 373.8,41.3 373.5,41.1 C370.3,39 366.6,37.9 362.8,37.9 C358.3,37.9 355.8,40.2 355.8,43.4 C355.8,46.3 358,48.2 364,49 L366.4,49.3 C375,50.4 379.7,54.2 379.7,61.3 C379.7,68.6 374,74.1 362.9,74.1 C356.3,73.9 350,71.5 346.5,68.5 Z" id="Path" fill="#333333"></path>
            <path d="M393.3,73.8 C386.9,73.8 384.5,70.9 384.5,65.2 L384.5,49.8 C384.5,49.6 384.4,49.5 384.2,49.4 C384.2,49.4 384.2,49.4 384.1,49.4 L382,49.4 C381.7,49.4 381.4,49.2 381.3,48.9 C381.3,48.9 381.3,48.9 381.3,48.8 L381.3,44.7 C381.3,44.4 381.6,44.1 381.9,44.1 C381.9,44.1 381.9,44.1 382,44.1 L384.1,44.1 C384.3,44.1 384.5,44 384.5,43.8 C384.5,43.8 384.5,43.8 384.5,43.7 L384.5,35.7 C384.5,35.4 384.8,35.1 385.1,35.1 C385.1,35.1 385.1,35.1 385.2,35.1 L391.2,35.1 C391.5,35.1 391.8,35.3 391.9,35.6 C391.9,35.6 391.9,35.6 391.9,35.7 L391.9,43.7 C391.9,43.9 392,44 392.2,44.1 C392.2,44.1 392.2,44.1 392.3,44.1 L396.5,44.1 C396.8,44.1 397.1,44.3 397.2,44.6 C397.2,44.6 397.2,44.6 397.2,44.7 L397.2,48.8 C397.2,49.1 396.9,49.4 396.6,49.4 C396.6,49.4 396.6,49.4 396.5,49.4 L392.3,49.4 C392.1,49.4 391.9,49.5 391.9,49.7 C391.9,49.7 391.9,49.7 391.9,49.8 L391.9,65 C391.9,67.1 392.8,67.7 394.9,67.7 L396.5,67.7 C396.8,67.7 397.1,67.9 397.2,68.2 C397.2,68.2 397.2,68.2 397.2,68.3 L397.2,73.2 C397.2,73.5 396.9,73.8 396.6,73.8 C396.6,73.8 396.6,73.8 396.5,73.8 L393.3,73.8 L393.3,73.8 Z" id="Path" fill="#333333"></path>
            <path d="M421.2,73.3 C420.9,73.3 420.6,73.1 420.5,72.8 C420.5,72.8 420.5,72.8 420.5,72.7 L420.5,70.6 L420.5,70.6 C419,72.6 416,74 411.6,74 C405.8,74 401,71.2 401,65.1 C401,58.7 405.9,55.8 413.7,55.8 L420.1,55.8 C420.3,55.8 420.5,55.7 420.5,55.5 C420.5,55.5 420.5,55.5 420.5,55.4 L420.5,54 C420.5,50.7 418.8,49.1 413.5,49.1 C410.9,49 408.4,49.7 406.3,51.1 C406,51.3 405.6,51.3 405.4,51 C405.4,51 405.4,51 405.4,50.9 L403,46.9 C402.8,46.7 402.9,46.3 403.1,46.1 C403.1,46.1 403.1,46.1 403.1,46.1 C405.7,44.4 409.1,43.2 414.3,43.2 C423.9,43.2 427.5,46.2 427.5,53.4 L427.5,72.5 C427.5,72.8 427.2,73.1 426.9,73.1 C426.9,73.1 426.9,73.1 426.8,73.1 L421.2,73.1 L421.2,73.3 Z M420.4,63.4 L420.4,61.2 C420.4,61 420.3,60.9 420.1,60.8 C420.1,60.8 420.1,60.8 420,60.8 L414.8,60.8 C410.1,60.8 408,62 408,64.7 C408,67.1 409.9,68.3 413.5,68.3 C417.9,68.4 420.4,66.8 420.4,63.4 L420.4,63.4 Z" id="Shape" fill="#333333"></path>
            <path d="M433.1,65.8 C432.4,63.5 432,61 432.1,58.6 C432,56.2 432.4,53.7 433.1,51.4 C434.9,46.2 439.8,43.3 446.2,43.3 C450.4,43.1 454.4,44.8 457.2,47.9 C457.4,48.1 457.4,48.5 457.2,48.7 C457.2,48.7 457.2,48.7 457.1,48.8 L453,52.1 C452.7,52.3 452.3,52.3 452.1,52 C452.1,52 452.1,52 452.1,51.9 C450.6,50.2 448.5,49.3 446.2,49.4 C443.4,49.4 441.2,50.7 440.3,53.2 C439.8,55 439.5,56.8 439.6,58.6 C439.5,60.4 439.7,62.3 440.3,64.1 C441.2,66.6 443.4,67.9 446.2,67.9 C448.4,68 450.6,67 452.1,65.3 C452.3,65 452.7,65 453,65.2 C453,65.2 453,65.2 453,65.2 L457.1,68.5 C457.4,68.7 457.4,69 457.2,69.3 C457.2,69.3 457.2,69.3 457.1,69.4 C454.2,72.4 450.2,74 446.1,73.9 C439.8,73.9 435,71.1 433.1,65.8 Z" id="Path" fill="#333333"></path>
            <path d="M482.8,73.3 C482.4,73.3 482,73.1 481.8,72.7 L473.8,60.4 L469.5,65 L469.5,72.7 C469.5,73 469.2,73.3 468.9,73.3 C468.9,73.3 468.9,73.3 468.8,73.3 L462.8,73.3 C462.5,73.3 462.2,73.1 462.1,72.8 C462.1,72.8 462.1,72.8 462.1,72.7 L462.1,32.6 C462.1,32.3 462.4,32 462.7,32 C462.7,32 462.7,32 462.8,32 L468.8,32 C469.1,32 469.4,32.2 469.5,32.5 C469.5,32.5 469.5,32.5 469.5,32.6 L469.5,56.4 L480.3,44.6 C480.6,44.2 481.1,44 481.5,44 L488.2,44 C488.4,44 488.6,44.1 488.6,44.3 C488.6,44.4 488.6,44.6 488.5,44.6 L478.4,55.3 L490,72.7 C490.1,72.9 490.1,73.1 490,73.2 C489.9,73.3 489.8,73.3 489.7,73.3 L482.8,73.3 L482.8,73.3 Z" id="Path" fill="#333333"></path>
        </g>
    </g>
</svg>