<svg width="2500" height="435" viewBox="0 0 512 89" xmlns="http://www.w3.org/2000/svg" preserveAspectRatio="xMinYMin meet"><g fill="#DCE1E2"><path d="M54.857 29.257c-1.406-1.5-2.72-2.72-4.126-3.563-1.313-.844-3.188-1.22-5.532-1.22-2.907 0-5.44.75-7.502 2.158-2.063 1.406-3.845 3.188-5.252 5.438a29.353 29.353 0 0 0-3.375 7.127 47.541 47.541 0 0 0-1.782 7.22c-.188 1.126-.281 2.157-.375 3.283-.094 1.125-.188 2.25-.188 3.375 0 1.97.188 3.845.563 5.627.375 1.782.938 3.47 1.782 4.876a9.697 9.697 0 0 0 3.375 3.376c1.407.844 3.189 1.219 5.44 1.219 2.531 0 4.782-.469 6.657-1.407 1.876-.937 3.845-2.156 6.002-3.844l-4.877 22.974c-2.438 1.031-4.688 1.782-6.939 2.25-2.25.47-4.595.75-7.033.75-3.938 0-7.595-.656-10.971-1.969-3.376-1.312-6.377-3.282-8.909-5.907-2.531-2.626-4.5-5.908-5.907-9.846C4.5 67.235 3.75 62.547 3.75 57.295c0-1.688.094-3.376.187-4.97.188-1.688.376-3.47.657-5.345.938-6.095 2.438-11.44 4.407-15.941 1.97-4.501 4.22-8.44 6.846-11.628 2.531-3.188 5.25-5.814 8.252-7.783 2.907-1.97 5.814-3.564 8.627-4.689a42.642 42.642 0 0 1 8.064-2.344c2.532-.469 4.689-.657 6.564-.657 1.97 0 3.845.188 5.814.47 1.876.28 3.657.843 5.345 1.5l-3.657 23.35zM59.827 46.23c.844-4.97 2.157-10.034 4.126-15.097a57.047 57.047 0 0 1 7.596-13.691c3.188-4.032 6.939-7.408 11.252-9.94 4.314-2.532 9.378-3.845 15.004-3.845 4.689 0 8.627.844 11.91 2.626 3.281 1.781 5.907 4.126 7.97 7.127 2.063 3 3.47 6.376 4.407 10.315.938 3.844 1.407 7.876 1.407 12.002 0 1.782-.094 3.47-.188 5.252-.187 1.781-.375 3.47-.656 5.157-.844 4.97-2.157 10.034-4.126 15.098a57.047 57.047 0 0 1-7.596 13.69c-3.188 4.033-6.939 7.409-11.252 9.94-4.314 2.532-9.378 3.845-15.004 3.845-4.689 0-8.721-.938-11.91-2.625-3.188-1.782-5.813-4.126-7.876-7.127-1.97-3.001-3.47-6.377-4.314-10.315-.937-3.845-1.406-7.97-1.406-12.19 0-1.689.093-3.377.187-5.158 0-1.688.188-3.376.47-5.064zm22.693 0c-.187 1.032-.281 2.438-.562 4.22a56.177 56.177 0 0 0-.282 5.814c0 1.5.094 2.907.282 4.313.187 1.407.468 2.626.937 3.751a6.998 6.998 0 0 0 1.876 2.626c.844.656 1.781 1.031 3.094 1.031 1.407 0 2.626-.375 3.751-1.219 1.125-.844 2.063-1.969 2.907-3.282a20.029 20.029 0 0 0 2.157-4.5c.656-1.595 1.125-3.283 1.594-4.877.469-1.594.75-3.095 1.031-4.501.282-1.407.47-2.532.563-3.47.188-1.031.375-2.438.563-4.313.281-1.876.375-3.751.375-5.814 0-1.407-.094-2.907-.281-4.22-.188-1.407-.47-2.626-.938-3.75a6.998 6.998 0 0 0-1.876-2.627c-.844-.656-1.781-1.031-3.094-1.031-1.407 0-2.626.375-3.751 1.219-1.125.844-2.063 1.97-2.907 3.282a20.029 20.029 0 0 0-2.157 4.501c-.656 1.594-1.125 3.282-1.594 4.876a52.537 52.537 0 0 0-1.125 4.501c-.282 1.5-.47 2.626-.563 3.47zM135.314 87.303L129.22 5.158h23.35v33.758c-.094 3.376-.188 6.658-.282 9.94-.187 3.282-.281 6.564-.469 9.94h.188c1.031-3.376 1.97-6.658 2.72-9.94a146.732 146.732 0 0 1 2.906-9.94L168.98 5.158h24.1l-35.072 82.145h-22.693zM197.955 5.158h41.26l-2.907 19.41h-19.036l-1.876 11.44h17.16l-3.094 19.412h-17.066l-1.97 12.565h19.036l-2.907 19.411h-41.26l12.66-82.238zM272.785 87.303l-6.939-34.228-.281.188c-.188 2.063-.469 4.032-.657 6.001a65.958 65.958 0 0 1-.844 6.002l-3.375 21.943h-22.225l12.754-82.145h21.474c4.313 0 8.252.281 11.909.937 3.657.657 6.751 1.782 9.377 3.283 2.626 1.594 4.689 3.657 6.095 6.376 1.407 2.72 2.157 6.095 2.157 10.221 0 1.032-.094 2.063-.188 3.095-.093 1.031-.28 2.157-.375 3.282-.75 4.595-2.344 8.72-4.97 12.378-2.625 3.75-6.189 6.47-10.971 8.158l11.253 34.227h-24.194v.282zm-3.938-44.074c1.406 0 2.813-.281 4.032-.844a10.051 10.051 0 0 0 3.188-2.344c.938-.938 1.688-2.063 2.25-3.376a20.267 20.267 0 0 0 1.22-3.844c.094-.47.094-.844.188-1.22 0-.375.093-.75.093-1.125 0-2.625-.75-4.5-2.25-5.814-1.5-1.219-3.47-1.875-6.002-1.875h-.844l-3.282 20.349 1.407.093zM340.677 87.303V76.8h-14.91l-3.47 10.596h-22.88l32.445-82.145h27.1l4.69 82.145h-22.975v-.093zm.094-27.945l.562-19.036c.094-2.532.188-5.157.282-7.689.187-2.626.281-5.158.469-7.69h-.188c-.75 2.532-1.5 5.158-2.157 7.69-.75 2.626-1.5 5.157-2.25 7.69l-6.002 19.035h9.284zM369.465 87.303l12.753-82.145h22.224l-9.846 62.734h16.692l-2.907 19.41h-38.916zM414.476 87.303L427.23 5.158h22.224l-9.846 62.734H456.3l-2.907 19.41h-38.916zM462.957 59.64c.562 1.125 1.313 2.25 2.157 3.375.844 1.126 1.875 2.063 2.907 2.907 1.125.844 2.25 1.594 3.47 2.063 1.218.47 2.531.75 4.031.75 1.5 0 3.095-.468 4.595-1.406 1.594-.938 2.532-2.25 2.813-4.126.094-.281.094-.656.094-1.22 0-1.218-.375-2.343-1.219-3.375a7.469 7.469 0 0 0-1.406-1.594c-.563-.469-1.126-1.032-1.782-1.5a139.021 139.021 0 0 1-5.251-4.97c-1.595-1.688-3.001-3.47-4.126-5.44-.844-1.406-1.407-3-1.876-4.688-.469-1.688-.656-3.47-.656-5.439 0-1.313.093-2.72.281-4.22.375-2.438 1.22-5.157 2.532-8.252 1.313-3.094 3.094-6.095 5.532-8.814 2.345-2.72 5.346-5.064 8.815-7.033 3.564-1.97 7.69-2.907 12.378-2.907 2.72 0 5.345.375 7.97 1.125a33.347 33.347 0 0 1 7.221 3l-3.75 24.945c-.47-1.032-1.126-2.063-1.97-3.095-.844-1.031-1.688-1.97-2.72-2.813-1.03-.844-2.156-1.5-3.281-2.063-1.22-.563-2.438-.844-3.751-.844-1.313 0-2.626.469-4.032 1.313-1.407.844-2.25 2.063-2.532 3.75v.657c0 1.407.469 2.72 1.5 3.938.469.657 1.032 1.22 1.688 1.782.656.563 1.22 1.032 1.782 1.594 2.063 1.688 3.938 3.282 5.532 4.876 1.594 1.595 2.813 3.283 3.751 5.158a16.553 16.553 0 0 1 1.688 4.22c.375 1.5.563 3.188.563 5.064 0 1.687-.188 3.375-.47 4.97a31.966 31.966 0 0 1-3.562 10.69 33.993 33.993 0 0 1-6.752 8.72c-2.72 2.532-5.72 4.502-9.19 5.908-3.47 1.407-7.127 2.157-10.971 2.157-5.627 0-11.065-1.125-16.13-3.376l4.127-25.787z"/></g><g fill="#394A56"><path d="M51.294 25.881c-1.407-1.5-2.72-2.72-4.126-3.563-1.313-.844-3.189-1.22-5.533-1.22-2.907 0-5.439.751-7.502 2.158-2.063 1.406-3.844 3.188-5.25 5.439a29.353 29.353 0 0 0-3.377 7.126 47.541 47.541 0 0 0-1.781 7.22c-.188 1.126-.282 2.158-.376 3.283-.093 1.125-.187 2.25-.187 3.376 0 1.969.187 3.844.563 5.626.375 1.782.937 3.47 1.781 4.876a9.697 9.697 0 0 0 3.376 3.376c1.407.844 3.188 1.22 5.439 1.22 2.532 0 4.782-.47 6.658-1.408 1.875-.937 3.844-2.156 6.001-3.844L42.104 82.52c-2.438 1.032-4.689 1.782-6.94 2.25-2.25.47-4.594.75-7.032.75-3.939 0-7.596-.656-10.972-1.968-3.375-1.313-6.376-3.282-8.908-5.908-2.532-2.626-4.501-5.908-5.908-9.846C1.032 63.766.281 59.077.281 53.826c0-1.688.094-3.376.188-4.97.187-1.688.375-3.47.656-5.345.938-6.096 2.438-11.44 4.408-15.942 1.969-4.5 4.22-8.44 6.845-11.628 2.532-3.188 5.251-5.814 8.252-7.783 2.907-1.969 5.814-3.563 8.627-4.688a42.642 42.642 0 0 1 8.065-2.345C39.853.656 42.01.47 43.886.47c1.969 0 3.844.187 5.814.469 1.875.281 3.657.844 5.345 1.5l-3.751 23.443zM56.264 42.854c.844-4.97 2.157-10.033 4.126-15.097a57.047 57.047 0 0 1 7.595-13.691c3.189-4.032 6.94-7.408 11.253-9.94C83.552 1.594 88.615.281 94.242.281c4.688 0 8.627.844 11.909 2.626s5.908 4.126 7.97 7.127c2.064 3 3.47 6.376 4.408 10.315.938 3.844 1.407 7.877 1.407 12.003 0 1.781-.094 3.47-.188 5.25-.188 1.783-.375 3.47-.656 5.158-.844 4.97-2.157 10.034-4.126 15.098a57.047 57.047 0 0 1-7.596 13.69c-3.188 4.033-6.94 7.409-11.253 9.94-4.313 2.533-9.377 3.845-15.003 3.845-4.69 0-8.721-.937-11.91-2.625-3.188-1.782-5.814-4.126-7.877-7.127-1.969-3-3.47-6.377-4.313-10.315-.938-3.845-1.407-7.97-1.407-12.19 0-1.688.094-3.376.188-5.158 0-1.688.187-3.376.469-5.064zm22.693 0c-.188 1.032-.282 2.438-.563 4.22a56.177 56.177 0 0 0-.281 5.814c0 1.5.094 2.907.281 4.313.188 1.407.469 2.626.938 3.751a6.998 6.998 0 0 0 1.875 2.626c.844.656 1.782 1.032 3.095 1.032 1.406 0 2.625-.376 3.75-1.22 1.126-.843 2.064-1.969 2.908-3.282a20.029 20.029 0 0 0 2.156-4.5c.657-1.595 1.126-3.283 1.595-4.877.468-1.594.75-3.094 1.031-4.501.281-1.407.469-2.532.563-3.47.187-1.031.375-2.438.562-4.313.282-1.876.375-3.751.375-5.814 0-1.407-.093-2.907-.28-4.22-.188-1.406-.47-2.625-.939-3.75a6.998 6.998 0 0 0-1.875-2.626c-.844-.657-1.782-1.032-3.095-1.032-1.406 0-2.625.375-3.75 1.22-1.126.843-2.063 1.968-2.907 3.281a20.029 20.029 0 0 0-2.157 4.501c-.657 1.594-1.125 3.282-1.594 4.877a52.537 52.537 0 0 0-1.126 4.5c-.28 1.501-.468 2.626-.562 3.47zM131.75 83.927l-6.094-82.145h23.35V35.54l-.282 9.94c-.188 3.282-.282 6.564-.47 9.94h.188c1.032-3.376 1.97-6.658 2.72-9.94a146.732 146.732 0 0 1 2.907-9.94l11.346-33.758h24.006l-35.07 82.145h-22.6zM194.391 1.782h41.26l-2.907 19.41h-19.036l-1.875 11.441H228.9l-3.095 19.411h-17.067L206.77 64.61h19.036l-2.907 19.41h-41.26l12.753-82.238zM269.222 83.927l-6.94-34.227-.28.187c-.188 2.063-.47 4.032-.657 6.002a65.958 65.958 0 0 1-.844 6.001l-3.376 21.943h-22.224l12.66-82.051h21.473c4.314 0 8.252.281 11.91.937 3.657.657 6.751 1.782 9.377 3.282 2.626 1.595 4.689 3.658 6.095 6.377 1.407 2.72 2.157 6.095 2.157 10.221 0 1.032-.094 2.063-.188 3.095-.093 1.031-.281 2.157-.375 3.282-.75 4.595-2.344 8.72-4.97 12.378-2.625 3.75-6.189 6.47-10.971 8.158l11.253 34.227h-24.1v.188zm-3.938-44.074c1.406 0 2.813-.28 4.032-.843a10.051 10.051 0 0 0 3.188-2.345c.938-.938 1.688-2.063 2.25-3.376a20.266 20.266 0 0 0 1.22-3.844c.093-.47.093-.844.187-1.22 0-.374.094-.75.094-1.125 0-2.625-.75-4.5-2.25-5.814-1.501-1.219-3.47-1.875-6.002-1.875h-.844l-3.188 20.255 1.313.187zM337.114 83.927V73.424h-14.91l-3.47 10.597h-22.88l32.445-82.146h27.1l4.689 82.146h-22.974v-.094zm.093-27.945l.563-19.035c.094-2.532.188-5.158.281-7.69.188-2.625.282-5.157.47-7.69h-.188c-.75 2.533-1.5 5.158-2.157 7.69-.75 2.626-1.5 5.158-2.25 7.69l-6.002 19.035h9.283zM365.902 83.927l12.753-82.145h22.224l-9.846 62.734h16.692l-2.907 19.41h-38.916zM410.913 83.927l12.753-82.145h22.224l-9.846 62.734h16.692l-2.907 19.41h-38.916zM459.393 56.264c.563 1.125 1.313 2.25 2.157 3.376.844 1.125 1.876 2.063 2.907 2.907 1.125.843 2.25 1.594 3.47 2.063 1.219.468 2.532.75 4.032.75s3.094-.47 4.595-1.407c1.594-.938 2.532-2.25 2.813-4.126.094-.281.094-.656.094-1.219 0-1.219-.375-2.344-1.22-3.376a7.469 7.469 0 0 0-1.406-1.594c-.562-.469-1.125-1.031-1.782-1.5a139.021 139.021 0 0 1-5.25-4.97c-1.595-1.688-3.002-3.47-4.127-5.44-.844-1.406-1.406-3-1.875-4.688-.47-1.688-.657-3.47-.657-5.439 0-1.312.094-2.719.282-4.22.375-2.437 1.219-5.157 2.532-8.251 1.312-3.095 3.094-6.096 5.532-8.815 2.344-2.72 5.345-5.064 8.815-7.033 3.563-1.97 7.69-2.907 12.378-2.907 2.72 0 5.345.375 7.97 1.125a33.347 33.347 0 0 1 7.221 3.001l-3.938 24.944c-.47-1.032-1.126-2.063-1.97-3.095-.844-1.031-1.688-1.969-2.72-2.813-1.03-.844-2.156-1.5-3.281-2.063-1.22-.563-2.438-.844-3.751-.844-1.313 0-2.626.469-4.032 1.313-1.407.844-2.25 2.063-2.532 3.75v.657c0 1.407.469 2.72 1.5 3.939.469.656 1.032 1.219 1.688 1.781.657.563 1.22 1.032 1.782 1.594 2.063 1.688 3.938 3.283 5.532 4.877 1.595 1.594 2.814 3.282 3.751 5.157a16.553 16.553 0 0 1 1.688 4.22c.375 1.5.563 3.188.563 5.064 0 1.688-.188 3.376-.469 4.97a31.966 31.966 0 0 1-3.563 10.69 33.993 33.993 0 0 1-6.752 8.72c-2.72 2.533-5.72 4.502-9.19 5.908-3.47 1.407-7.127 2.157-10.971 2.157-5.627 0-11.065-1.125-16.13-3.376l4.314-25.787z"/></g></svg>