<?xml version="1.0" encoding="UTF-8" standalone="no"?>
<!-- Created with Inkscape (http://www.inkscape.org/) -->

<svg width="101.39223mm" height="101.39223mm" viewBox="0 0 101.39223 101.39223" version="1.1" id="svg1" xmlns="http://www.w3.org/2000/svg" xmlns:svg="http://www.w3.org/2000/svg">
  <defs id="defs1" />
  <g id="layer1" transform="translate(-5.8199616,-23.115337)">
    <g id="g45" transform="translate(267.67379,-136.92352)">
      <circle style="font-variation-settings:normal;opacity:1;vector-effect:none;fill:#cccccc;fill-opacity:1;fill-rule:evenodd;stroke-width:0.398343;stroke-linecap:butt;stroke-linejoin:miter;stroke-miterlimit:4;stroke-dasharray:none;stroke-dashoffset:0;stroke-opacity:1;-inkscape-stroke:none" id="path42" cx="-211.15771" cy="210.73497" r="50.696114" />
      <g id="g40" transform="matrix(0.1487403,0,0,0.1487403,-248.93748,169.5943)">
        <g id="g2">
          <path d="m 339.28132,144.85552 c -1.7577,2.08666 -3.98893,3.72206 -6.50814,4.76945 l -7.21532,8.12517 -20.43689,24.67773 -13.80738,8.35194 -6.41109,-11.03715 30.26457,-29.48015 8.43338,-8.58048 c 0.67621,-2.64418 1.97584,-5.08773 3.79079,-7.1256 4.4675,-5.16172 10.75245,-7.03932 14.03602,-4.19587 3.28421,2.84414 2.32391,9.33233 -2.14593,14.49496 z" fill="#ffafaf" id="path1" />
          <path d="m 215.75649,169.37563 13.29016,-22.11774 56.5433,24.29522 30.90638,-25.25171 c 0,0 12.2617,10.56233 12.69962,10.93955 0.43792,0.37722 -31.16616,44.15089 -33.41028,44.09926 -2.24412,-0.0516 -80.02919,-31.96459 -80.02919,-31.96459 z" fill="#dedede" id="path2" />
        </g>
        <path d="m 0,479.24451 c 0,0.66003 0.53003,1.19 1.19006,1.19 h 505.61625 c 0.65997,0 1.19,-0.52997 1.19,-1.19 0,-0.65997 -0.53003,-1.19 -1.19,-1.19 H 1.19006 c -0.66003,0 -1.19006,0.53003 -1.19006,1.19 z" fill="#3f3d58" id="path3" />
        <g id="g8">
          <path d="m 343.37799,0 c 40.25244,0 73,30.72852 73,68.5 0,10.55371 -2.62939,21.05078 -7.61865,30.46875 h 0.0601 l -1.32129,2.29688 c -11.2124,19.31543 -17.43848,41.3125 -18.00342,63.61133 -0.17139,6.79785 -5.6333,12.12305 -12.43359,12.12305 h -56.88623 c -7.33008,0 -13.48633,-5.25439 -14.6377,-12.49316 -2.80176,-17.6123 -8.40527,-34.58301 -16.65332,-50.44238 -11.93461,-12.55957 -18.5059,-28.73633 -18.5059,-45.56445 0,-37.7715 32.74805,-68.50002 73,-68.50002 z m 62.35107,100.3291 0.47314,-0.85156 c 5.34863,-9.49414 8.17578,-20.20605 8.17578,-30.97754 0,-36.66797 -31.85059,-66.5 -71,-66.5 -39.14941,0 -71,29.83203 -71,66.5 0,16.3584 6.41016,32.08594 18.05078,44.28711 l 0.16309,0.22852 c 8.38379,16.08594 14.07715,33.30469 16.91992,51.17676 0.99609,6.26221 6.32227,10.80762 12.66309,10.80762 h 56.88623 c 5.70703,0 10.29004,-4.46875 10.43457,-10.17383 0.57227,-22.60645 6.87695,-44.90723 18.2334,-64.49707 z" fill="#3f3d56" id="path4" />
          <path d="m 384.93105,172.00015 h -75.10596 c -2.38802,0 -4.26057,2.0505 -4.04437,4.42871 l 0.70322,7.73563 c 0.58849,6.4735 2.63111,12.73056 5.97549,18.3044 v 0 c 0.55924,0.93206 1.61518,1.44245 2.69433,1.31238 22.25527,-2.68252 44.03088,-2.77033 65.28482,-0.0388 1.16266,0.14942 2.29074,-0.44478 2.81498,-1.49325 l 0.48135,-0.9627 c 2.40753,-4.81506 3.8933,-10.03792 4.38068,-15.39922 l 0.85983,-9.45839 c 0.2162,-2.37821 -1.65635,-4.42871 -4.04437,-4.42871 z" fill="#3f3d56" id="path5" />
          <path d="m 317.37807,198.50015 h 61.5 v 40.02791 c 0,7.15949 -5.8126,12.97209 -12.97209,12.97209 h -35.55581 c -7.15949,0 -12.97209,-5.8126 -12.97209,-12.97209 v -40.02791 0 z" fill="#3f3d56" id="path6" />
          <path d="m 356.04202,262.00015 h -13.32791 c -1.466,0 -2.84175,-0.70799 -3.69384,-1.90092 l -8.6422,-12.09908 h 38 l -8.6422,12.09908 c -0.85209,1.19293 -2.22785,1.90092 -3.69384,1.90092 z" fill="#3f3d56" id="path7" />
          <path d="m 366.12615,35.32647 c -9.78508,2.02614 -19.57015,4.05229 -29.35523,6.07843 -4.40004,0.91109 -9.32793,1.38395 -13.32571,3.57071 -3.87589,2.12009 -6.59038,6.56839 -5.20384,11.0215 1.32408,4.25251 5.23235,6.92014 9.42433,7.86845 4.65106,1.05217 9.63356,1.04475 14.37444,1.41071 4.9449,0.38171 9.8898,0.76341 14.8347,1.14512 2.35337,0.18166 4.71905,0.30711 7.06693,0.54884 0.751,0.07732 1.56979,0.16944 2.18644,0.64589 -0.009,-0.0072 0.20836,0.12917 0.0877,0.15012 -0.0235,0.0041 -0.0255,-0.1543 -0.0221,-0.16491 0.0953,-0.29674 0.0561,-0.01596 -0.0207,-0.01525 -0.027,2.5e-4 -0.73526,0.46812 -1.13042,0.54199 -1.06603,0.1993 -2.24216,0.05431 -3.32237,0.03591 -2.34708,-0.03998 -4.69541,0.0044 -7.03935,0.13214 -4.71747,0.25718 -9.42845,0.84396 -14.06835,1.73284 -4.56402,0.87434 -9.10646,2.03846 -13.48968,3.58913 -4.24986,1.5035 -8.70105,4.35866 -8.81664,9.39621 -0.10856,4.73132 3.996,8.0562 8.17609,9.24474 2.14995,0.6113 4.41565,0.83289 6.62081,1.16093 2.46033,0.366 4.92067,0.732 7.381,1.098 4.83866,0.7198 9.67731,1.4396 14.51597,2.15939 2.46033,0.366 4.92067,0.732 7.381,1.098 1.14726,0.17067 2.30106,0.3178 3.44447,0.5124 0.42158,0.07175 0.8192,0.20433 1.23503,0.28965 -0.27921,-0.05729 0.0672,-0.05682 0.01,0.0082 0.18217,0.11163 0.18258,0.09478 10e-4,-0.05057 l -0.12357,-0.18156 c -0.28234,-0.79255 -0.27258,-0.89695 0.2426,-1.8342 0.0984,-0.17895 0.29818,0.0057 0.0435,-0.02243 -0.27188,-0.03004 0.16303,-0.03404 -0.12656,0.08556 -0.14478,0.05979 -0.30217,0.10049 -0.45291,0.14219 -1.13922,0.31519 -2.33285,0.47986 -3.4924,0.70755 -2.41053,0.47332 -4.82107,0.94664 -7.2316,1.41996 -4.74071,0.93086 -9.48148,1.86146 -14.22214,2.79259 -8.35115,1.64029 -17.22027,3.8587 -22.225,11.39391 -1.08873,1.63921 -1.87883,3.52803 -2.27347,5.45482 -0.3248,1.58578 0.45984,3.24097 2.09532,3.69036 1.48351,0.40763 3.36372,-0.50056 3.69036,-2.09532 1.58533,-7.74015 10.055,-10.51989 17.02006,-11.99627 4.61722,-0.97871 9.26281,-1.83505 13.89412,-2.74444 4.66759,-0.91651 9.40939,-1.66266 14.0371,-2.76137 1.9455,-0.4619 4.05633,-1.65799 4.60012,-3.7324 0.59537,-2.27118 -0.52565,-4.46368 -2.5843,-5.52174 -1.97445,-1.01478 -4.3215,-1.09484 -6.47893,-1.41577 -2.37832,-0.3538 -4.75665,-0.7076 -7.13497,-1.0614 -4.83866,-0.7198 -9.67731,-1.4396 -14.51597,-2.15939 -2.37832,-0.3538 -4.75665,-0.7076 -7.13497,-1.0614 -2.20524,-0.32805 -4.47061,-0.54956 -6.62081,-1.16093 -1.45474,-0.41363 -2.94324,-1.12339 -3.58581,-2.50851 -0.20717,-0.44658 -0.26047,-0.7716 -0.119,-1.27388 0.19418,-0.68946 0.73416,-1.33156 1.3351,-1.80673 1.38526,-1.09533 3.26028,-1.58401 4.90692,-2.1123 2.16064,-0.6932 4.34524,-1.31168 6.54859,-1.85409 4.37442,-1.07688 8.82057,-1.86498 13.30492,-2.30181 2.33636,-0.22759 4.68064,-0.37227 7.02727,-0.43316 2.22033,-0.05761 4.44462,0.07999 6.66212,0.0113 2.36368,-0.07321 4.7965,-0.70515 6.41923,-2.53748 1.66997,-1.88567 2.07596,-4.4605 0.91412,-6.72101 -2.29915,-4.47333 -8.39123,-4.03382 -12.63808,-4.36164 -4.86248,-0.37534 -9.72497,-0.75069 -14.58745,-1.12603 -4.54681,-0.35098 -9.22151,-0.4249 -13.72887,-1.12463 -1.66926,-0.25914 -3.59306,-0.73621 -4.85191,-1.73087 -1.15405,-0.91186 -1.9032,-2.10742 -1.81149,-3.30544 0.0853,-1.1144 1.22331,-2.34531 2.41464,-3.02936 1.67141,-0.95972 3.64349,-1.31787 5.51016,-1.70703 9.60699,-2.00283 19.21945,-3.97979 28.82914,-5.96962 2.36473,-0.48965 4.72945,-0.9793 7.09418,-1.46895 1.58727,-0.32867 2.50472,-2.20063 2.09532,-3.69036 -0.45286,-1.64789 -2.09848,-2.42494 -3.69036,-2.09532 v 0 z" fill="#6c63ff" id="path8" />
        </g>
        <rect x="220.37399" y="131.00008" width="19.65164" height="38.147289" fill="#ffafaf" id="rect8" />
        <path d="m 272.4694,237.29842 -47.39512,-3.46794 c 0,0 -19.65164,45.08316 -4.62391,73.98263 l 10.40381,60.11088 -4.11409,98.93814 h 21.52698 l 33.45017,-159.04903 -9.24783,-70.51469 z" fill="#2f2e41" id="path9" />
        <polygon points="281.71723,303.89042 272.4694,461.55826 251.66179,461.55826 263.22157,287.79173 " fill="#2f2e41" id="polygon9" />
        <circle cx="229.93433" cy="113.93163" r="24.56883" fill="#ffafaf" id="circle9" />
        <path d="m 226.9916,443.38148 25.37943,4.0095 4.76997,18.20598 c 0,0 20.60701,7.75462 10.67776,16.18143 -9.92926,8.42681 -46.61071,4.07002 -49.5109,-1.97463 -2.90019,-6.04465 8.68374,-36.42227 8.68374,-36.42227 z" fill="#2f2e41" id="path10" />
        <path d="m 247.79921,443.38148 25.37943,4.0095 4.76997,18.20598 c 0,0 20.60701,7.75462 10.67776,16.18143 -9.92926,8.42681 -46.61071,4.07002 -49.5109,-1.97463 -2.90019,-6.04465 8.68374,-36.42227 8.68374,-36.42227 z" fill="#2f2e41" id="path11" />
        <path d="m 317.91302,233.38836 c -2.72814,0.0301 -5.42343,-0.59303 -7.86116,-1.81815 l -10.86519,-0.16383 -32.03545,0.62181 -15.33933,-5.01036 4.17817,-12.06083 42.0881,3.68989 12.00513,0.78955 c 2.44471,-1.2134 5.14429,-1.82351 7.87283,-1.77842 6.82654,0.016 12.35101,3.55244 12.33967,7.89606 -0.0114,4.34454 -5.554,7.85149 -12.38277,7.83429 z" fill="#ffafaf" id="path12" />
        <path d="m 241.83597,145.39813 h -24.32173 l -8.04567,24.27555 15.60571,64.15681 47.39512,3.46794 -2.88995,-26.00952 v -2e-5 c 5.5955,-9.09267 5.14898,-20.66363 -1.1306,-29.29804 l -26.61289,-36.59272 z" fill="#dedede" id="path13" />
        <path d="m 218.7164,155.80194 25.43153,-4.3658 18.49566,58.69679 39.30327,6.93587 v 16.76169 c 0,0.57799 -53.79192,5.2019 -55.21743,3.46794 -1.42552,-1.73397 -28.01302,-81.49649 -28.01302,-81.49649 z" fill="#dedede" id="path14" />
        <path d="m 242.20224,99.6872 c 3.0182,4.89641 0.23544,11.34568 -3.48262,15.73434 -3.71806,4.38866 -8.5123,8.24091 -10.17231,13.74806 -1.48833,4.93758 -0.13451,10.26267 1.61586,15.11355 1.75037,4.85088 3.9266,9.68736 4.10704,14.84122 0.18044,5.15386 -2.25871,10.84543 -7.11336,12.58531 -4.9817,1.78542 -10.8712,-1.02037 -15.66949,1.21154 -6.24995,2.90715 -7.66621,12.972 -14.47977,14.01544 -4.19317,0.64215 -8.0793,-2.99326 -9.2512,-7.07022 -1.17191,-4.07697 -0.33022,-8.42859 0.51692,-12.5852 2.32107,-11.38866 4.64215,-22.77731 6.96322,-34.16597 1.93126,-9.476 3.86253,-18.952 5.79379,-28.428 1.15307,-5.65769 2.5212,-11.70956 6.77327,-15.61583 5.19577,-4.77321 13.02743,-4.88668 20.07709,-4.60062 6.477,0.26282 13.21543,0.70598 18.85408,3.90382 5.63865,3.19784 9.7803,9.99526 7.82913,16.17697 -1.82241,-4.35077 -7.26723,-6.7915 -11.72774,-5.25714" fill="#2f2e41" id="path15" />
      </g>
    </g>
  </g>
</svg>
