<?xml version="1.0" encoding="UTF-8" standalone="no"?>
<!-- Created with Inkscape (http://www.inkscape.org/) -->

<svg width="101.39223mm" height="101.39223mm" viewBox="0 0 101.39223 101.39223" version="1.1" id="svg1" xmlns="http://www.w3.org/2000/svg" xmlns:svg="http://www.w3.org/2000/svg">
  <defs id="defs1" />
  <g id="layer1" transform="translate(-5.8199616,-23.115337)">
    <g id="g44" transform="translate(162.32565,-136.92352)">
      <circle style="font-variation-settings:normal;opacity:1;vector-effect:none;fill:#cccccc;fill-opacity:1;fill-rule:evenodd;stroke-width:0.398343;stroke-linecap:butt;stroke-linejoin:miter;stroke-miterlimit:4;stroke-dasharray:none;stroke-dashoffset:0;stroke-opacity:1;-inkscape-stroke:none" id="circle42" cx="-105.80957" cy="210.73497" r="50.696114" />
      <g id="g41" transform="matrix(0.11360147,0,0,0.11360147,-143.0629,184.41886)">
        <path d="m 350.22,378.66 c -1.77,10.71 -11.09,18.91 -22.29,18.91 -11.2,0 -20.53,-8.2 -22.29,-18.91 H 248.6 V 502.27 H 407.26 V 378.66 Z" fill="#dfdfdf" stroke-width="0" id="path1-1" />
        <rect x="251.36" y="501.81" width="15.68" height="2.77" fill="#bcb9cb" stroke-width="0" id="rect1-0" />
        <rect x="390.19" y="502.26999" width="15.68" height="2.77" fill="#bcb9cb" stroke-width="0" id="rect2" />
        <rect x="249.06" y="492.47" width="158.66" height="4.3000002" fill="#2f2e41" stroke-width="0" id="rect3" />
        <path d="M 647.01,381.89 H 8.85 C 3.97,381.89 0,377.92 0,373.04 V 8.85 C 0,3.97 3.97,0 8.85,0 h 638.16 c 4.88,0 8.85,3.97 8.85,8.85 v 364.2 c 0,4.88 -3.97,8.85 -8.85,8.85 v 0 z" fill="#2f2e41" stroke-width="0" id="path3-6" />
        <rect x="16.139999" y="15.68" width="624.48999" height="352.37" fill="#ffffff" stroke-width="0" id="rect4" />
        <path d="m 328.75,129.57 h -38.41 c -12.07,0 -21.89,-9.82 -21.89,-21.89 0,-12.07 9.82,-21.89 21.89,-21.89 h 38.41 c 12.07,0 21.89,9.82 21.89,21.89 0,12.07 -9.82,21.89 -21.89,21.89 z" fill="#dfdfdf" stroke-width="0" id="path4-3" />
        <circle cx="291.10999" cy="107.68" r="16.9" fill="#ffffff" stroke-width="0" id="circle4" />
        <path d="m 328.75,280.44 h -38.41 c -12.07,0 -21.89,-9.82 -21.89,-21.89 0,-12.07 9.82,-21.89 21.89,-21.89 h 38.41 c 12.07,0 21.89,9.82 21.89,21.89 0,12.07 -9.82,21.89 -21.89,21.89 z" fill="#dfdfdf" stroke-width="0" id="path5-2" />
        <circle cx="291.10999" cy="258.54999" r="16.9" fill="#ffffff" stroke-width="0" id="circle5" />
        <path d="m 328.75,204.86 h -38.41 c -12.07,0 -21.89,-9.82 -21.89,-21.89 0,-12.07 9.82,-21.89 21.89,-21.89 h 38.41 c 12.07,0 21.89,9.82 21.89,21.89 0,12.07 -9.82,21.89 -21.89,21.89 z" fill="#dfdfdf" stroke-width="0" id="path6-0" />
        <circle cx="327.56" cy="182.97" r="16.9" fill="#6c63ff" stroke-width="0" id="circle6" />
        <path d="m 149,505.53 c 0,0.5 0.4,0.91 0.91,0.91 h 356.03 c 0.5,0 0.91,-0.4 0.91,-0.91 0,-0.51 -0.4,-0.91 -0.91,-0.91 H 149.91 c -0.5,0 -0.91,0.4 -0.91,0.91 z" fill="#2f2e43" stroke-width="0" id="path7-6" />
        <polygon points="382,203.79 382,179.4 397.37,179.4 398.94,198.22 " fill="#f2a7aa" stroke-width="0" id="polygon7" />
        <circle cx="384.10001" cy="169.27" r="16.879999" fill="#f2a7aa" stroke-width="0" id="circle7" />
        <path d="m 388.73,167.6 c -2.83,-0.09 -4.68,-2.94 -5.78,-5.55 -1.1,-2.61 -2.23,-5.6 -4.85,-6.68 -2.14,-0.88 -5.92,5.07 -7.62,3.48 -1.76,-1.65 -0.04,-10.13 1.83,-11.66 1.87,-1.53 4.43,-1.82 6.84,-1.93 5.88,-0.27 11.8,0.2 17.57,1.41 3.57,0.74 7.24,1.86 9.81,4.44 3.26,3.27 4.09,8.21 4.33,12.82 0.24,4.72 -0.03,9.66 -2.33,13.79 -2.3,4.13 -7.1,7.18 -11.7,6.12 -0.46,-2.5 0,-5.07 0.19,-7.61 0.18,-2.54 0,-5.28 -1.56,-7.31 -1.56,-2.03 -4.86,-2.82 -6.67,-1.03" fill="#36344e" stroke-width="0" id="path8-1" />
        <path d="m 409.5,173.45 c 1.69,-1.24 3.71,-2.27 5.79,-2.02 2.25,0.27 4.14,2.12 4.72,4.31 0.58,2.19 -0.07,4.6 -1.46,6.39 -1.39,1.79 -3.45,2.97 -5.64,3.56 -1.26,0.34 -2.65,0.48 -3.85,-0.03 -1.78,-0.76 -2.73,-3.03 -2.04,-4.84" fill="#36344e" stroke-width="0" id="path9-5" />
        <rect x="377.48001" y="469.57999" width="15.87" height="22.51" fill="#f2a7aa" stroke-width="0" id="rect9" />
        <path d="m 362.02,505.72 c -1.67,0 -3.15,-0.04 -4.27,-0.14 -4.22,-0.39 -8.24,-3.5 -10.26,-5.32 -0.91,-0.82 -1.2,-2.12 -0.73,-3.24 v 0 c 0.34,-0.81 1.02,-1.41 1.86,-1.65 l 11.14,-3.18 18.04,-12.17 0.2,0.36 c 0.08,0.13 1.85,3.32 2.44,5.48 0.23,0.82 0.17,1.5 -0.18,2.03 -0.24,0.37 -0.57,0.58 -0.84,0.7 0.33,0.34 1.35,1.03 4.5,1.54 4.6,0.73 5.57,-4.04 5.61,-4.24 l 0.03,-0.16 0.14,-0.09 c 2.19,-1.41 3.54,-2.05 4,-1.91 0.29,0.09 0.78,0.23 2.08,13.22 0.13,0.41 1.05,3.4 0.42,6.25 -0.68,3.11 -14.26,2.04 -16.97,1.79 -0.08,0 -10.25,0.73 -17.21,0.73 z" fill="#36344e" stroke-width="0" id="path10-5" />
        <rect x="429.82001" y="454.38" width="15.87" height="22.51" transform="rotate(-31.95,437.75495,465.63715)" fill="#f2a7aa" stroke-width="0" id="rect10" />
        <path d="m 420.65,502.63 c -1.86,0 -3.57,-0.22 -4.79,-0.44 -1.2,-0.21 -2.14,-1.16 -2.33,-2.37 v 0 c -0.14,-0.86 0.12,-1.73 0.7,-2.38 l 7.77,-8.59 8.86,-19.87 0.36,0.2 c 0.14,0.07 3.33,1.84 4.97,3.36 0.63,0.58 0.94,1.19 0.93,1.82 0,0.44 -0.17,0.79 -0.34,1.04 0.46,0.12 1.69,0.16 4.63,-1.08 4.29,-1.81 2.59,-6.37 2.51,-6.56 l -0.06,-0.15 0.07,-0.15 c 1.11,-2.36 1.91,-3.61 2.38,-3.74 0.29,-0.08 0.78,-0.21 8.76,10.11 0.33,0.27 2.69,2.33 3.67,5.08 1.07,3 -11.02,9.27 -13.45,10.5 -0.07,0.06 -12.73,9.26 -17.92,11.87 -2.06,1.04 -4.5,1.36 -6.72,1.36 v 0 z" fill="#36344e" stroke-width="0" id="path11-4" />
        <path d="M 405.03,281.31 H 360.6 l -4.03,41.33 17.64,152.71 h 22.68 l -9.07,-88.2 36.79,79.63 20.16,-14.11 -28.73,-74.34 c 0,0 10.26,-64.76 2.2,-80.89 -8.06,-16.13 -13.21,-16.13 -13.21,-16.13 z" fill="#36344e" stroke-width="0" id="path12-7" />
        <polygon points="356.57,283.83 377.74,192.6 408.48,192.6 427.13,283.83 " fill="#6c63ff" stroke-width="0" id="polygon12" />
        <path id="uuid-7f4403b9-21a6-4777-8daf-6db0c322735b-89-44-52-44-91-153-48-48-105-61-77" d="m 339.05,190.81 c -1.13,-5.55 0.94,-10.62 4.6,-11.32 3.67,-0.7 7.55,3.23 8.68,8.78 0.48,2.21 0.41,4.5 -0.22,6.69 l 4.46,23.57 -11.53,1.82 -3.17,-23.43 c -1.43,-1.79 -2.4,-3.88 -2.82,-6.11 z" fill="#f2a7aa" stroke-width="0" />
        <path d="m 407.73,192.6 h -27.11 l -18.28,36.55 -6.89,-27.39 -15.15,1.61 c 0,0 3.58,53.52 19.25,51.71 15.67,-1.81 52.2,-50.03 48.18,-62.48 z" fill="#6c63ff" stroke-width="0" id="path13-6" />
        <path id="uuid-4f4c8d73-174a-4aab-b932-a11e56a3b943-90-45-53-45-92-154-49-49-106-62-78" d="m 438.01,331.62 c 1.13,5.55 -0.94,10.62 -4.6,11.32 -3.67,0.7 -7.55,-3.23 -8.68,-8.78 -0.48,-2.21 -0.41,-4.5 0.22,-6.69 l -4.46,-23.57 11.53,-1.82 3.17,23.43 c 1.43,1.79 2.4,3.88 2.82,6.11 z" fill="#f2a7aa" stroke-width="0" />
        <path d="m 392.28,192.6 c 0,0 15.41,-0.65 16.21,0 4.2,3.44 28.87,127.34 28.87,127.34 H 421.74 L 392.29,192.6 v 0 z" fill="#6c63ff" stroke-width="0" id="path14-5" />
      </g>
    </g>
  </g>
</svg>
