<?xml version="1.0" encoding="UTF-8" standalone="no"?>
<!-- Created with Inkscape (http://www.inkscape.org/) -->

<svg width="101.39223mm" height="101.39223mm" viewBox="0 0 101.39223 101.39223" version="1.1" id="svg1" xmlns="http://www.w3.org/2000/svg" xmlns:svg="http://www.w3.org/2000/svg">
  <defs id="defs1" />
  <g id="layer1" transform="translate(-5.8199616,-23.115337)">
    <g id="g43" transform="translate(43.083997,-136.92352)">
      <circle style="font-variation-settings:normal;opacity:1;vector-effect:none;fill:#cccccc;fill-opacity:1;fill-rule:evenodd;stroke-width:0.398343;stroke-linecap:butt;stroke-linejoin:miter;stroke-miterlimit:4;stroke-dasharray:none;stroke-dashoffset:0;stroke-opacity:1;-inkscape-stroke:none" id="circle43" cx="13.432078" cy="210.73497" r="50.696114" />
      <g id="g42" transform="matrix(0.1487403,0,0,0.1487403,-45.871423,205.53614)">
        <path d="m 120,222.22599 c 0,0.66 0.57,1.19 1.28,1.19 h 554.85 c 0.71002,0 1.28003,-0.53 1.28003,-1.19 0,-0.66 -0.57001,-1.19 -1.28003,-1.19 H 121.28 c -0.71,0 -1.28,0.53 -1.28,1.19 z" fill="#484565" id="path1-6" />
        <path id="uuid-c898493f-f725-434a-93ef-3ba3a30fd79f-223" d="m 341.54001,223.15599 c -8.29001,1.67999 -15.85999,-1.39999 -16.89999,-6.87 -1.04999,-5.48 4.82001,-11.28 13.10999,-12.96001 3.29999,-0.72 6.73001,-0.60001 9.98001,0.33 l 129.84,-20.85001 4.91,26.08 -131.82001,10.06999 c -2.67001,2.14 -5.79999,3.58 -9.12,4.2 v 0 2e-5 z" fill="#faafb2" />
        <path d="m 550.13,168.02599 v 17.8 c -1.90997,12.58 -8.62,16 -21.02002,18.86 -18.92001,4.36 -44.10999,9.95 -44.48001,8.84 -0.59,-1.78 -14.85001,-32.07001 -11.57999,-47.52 l 77.09003,2.02 z" fill="#6c63ff" id="path2-9" />
        <polygon points="582.84998,176.60599 582.84998,204.04599 549.27002,206.846 539.33002,176.60599 " fill="#faafb2" id="polygon2" />
        <circle cx="600.92999" cy="180.35599" r="30.129999" fill="#faafb2" id="circle2" />
        <path d="m 603.91998,188.62599 c 0.15002,-5.05 5.25,-8.36 9.90997,-10.32001 4.65002,-1.96001 10,-3.98 11.91998,-8.64999 1.57001,-3.83 -9.03998,-10.57001 -6.21997,-13.60001 2.94,-3.14 18.09003,-0.08 20.81,3.25999 2.71997,3.33999 3.25,7.91 3.45001,12.21001 0.47998,10.5 -0.35999,21.06 -2.51001,31.35001 -1.33002,6.36 -3.32001,12.92 -7.92999,17.50999 -5.84003,5.81 -14.65002,7.3 -22.88,7.72 -8.41998,0.42999 -17.23999,-0.06 -24.60999,-4.14999 -7.37,-4.08999 -12.81,-12.67 -10.92999,-20.89 4.46997,-0.83 9.04999,0.02 13.59003,0.33 4.54004,0.31 9.42999,-0.02 13.03998,-2.78 3.60999,-2.76 5.03998,-8.68001 1.84003,-11.89999" fill="#36344e" id="path3-3" />
        <path d="m 593.47998,225.69599 c 2.21002,3.00999 4.04999,6.62 3.59998,10.33 -0.48999,4.00999 -3.78998,7.39 -7.70001,8.42 -3.91003,1.03 -8.21002,-0.12 -11.40002,-2.60001 -3.19,-2.48 -5.31,-6.16 -6.35999,-10.06 -0.60999,-2.25999 -0.85999,-4.73 0.06,-6.88 1.35999,-3.17 5.40997,-4.88 8.63,-3.63" fill="#36344e" id="path4-7" />
        <polygon points="223.11,128.76599 248.02,128.76599 251.71001,199.83599 225.13,199.83599 " fill="#faafb2" id="polygon4" />
        <path d="m 199.24001,222.66599 c -2.8,0 -5.28,-0.07 -7.16,-0.24001 -7.06,-0.64999 -13.8,-5.86 -17.19,-8.91 -1.52,-1.37 -2.00999,-3.55 -1.22,-5.42999 v 0 c 0.57001,-1.35001 1.7,-2.36 3.11,-2.75999 l 18.66,-5.33 30.20999,-20.38 0.34,0.60001 c 0.13,0.23 3.09,5.57001 4.09,9.17999 0.38,1.37 0.28,2.52 -0.3,3.39999 -0.39999,0.61 -0.95,0.97 -1.39999,1.17 0.55,0.57001 2.25999,1.73 7.53999,2.58 7.7,1.22 9.33,-6.75999 9.39,-7.10001 l 0.05,-0.27 0.23,-0.14999 c 3.67,-2.36 5.92,-3.42999 6.7,-3.21001 0.49001,0.14999 1.3,0.39 3.49001,22.14 0.22,0.67999 1.75999,5.69 0.71001,10.47 -1.14,5.21001 -23.88,3.42 -28.42999,3 -0.13,0.02 -17.16,1.23 -28.83,1.23 h 0.01 l 2e-5,0.01 z" fill="#36344e" id="path5-4" />
        <path d="m 468.37,106.76599 -32.14999,45.12 -5.76001,8.08 -17.95999,-8.23 C 361.61,158.476 345.15,115.81599 345.15,115.81599 l -42.75,-40.91 -24.64999,-23.58 c 5.23999,32.93 -29.73,77.45 -29.73,77.45 h -24.89999 c 0,0 1.48998,-120.11 26.93998,-128.35 3.66,-1.19 10.79001,0.17 20.31,3.37 56.64999,19.01 198,102.97 198,102.97 z" fill="#36344e" id="path6-5" />
        <polygon points="248.02,128.76599 276.62,134.74599 276.62,199.83599 250.03,199.83599 " fill="#faafb2" id="polygon6" />
        <path d="m 224.14,222.66599 c -2.8,0 -5.28,-0.07 -7.16,-0.24001 -7.06,-0.64999 -13.8,-5.86 -17.19,-8.91 -1.52,-1.37 -2.00999,-3.55 -1.22,-5.42999 v 0 c 0.57001,-1.35001 1.7,-2.36 3.11,-2.75999 l 18.66,-5.33 30.20999,-20.38 0.34,0.60001 c 0.13,0.23 3.09,5.57001 4.09,9.17999 0.38,1.37 0.28,2.52 -0.3,3.39999 -0.39999,0.61 -0.95,0.97 -1.39999,1.17 0.55,0.57001 2.25999,1.73 7.53999,2.58 7.70001,1.22 9.32999,-6.75999 9.39001,-7.10001 l 0.05,-0.27 0.23001,-0.14999 c 3.67001,-2.36 5.92001,-3.42999 6.70001,-3.21001 0.48999,0.14999 1.29999,0.39 3.48999,22.14 0.22,0.67999 1.76001,5.69 0.70999,10.47 -1.14001,5.21001 -23.88,3.42 -28.42999,3 -0.13,0.02 -17.16,1.23 -28.83,1.23 h 0.01 l 2e-5,0.01 z" fill="#36344e" id="path7-2" />
        <path d="m 468.37,106.76599 -32.14999,45.12 c -49.95999,5.92 -66.16,-36.07 -66.16,-36.07 l -67.41,-64.5 c 1,6.29 0.76999,14.47 -0.26001,23.58 -4.34,38.57 -25.76999,59.85 -25.76999,59.85 L 248.02,128.75598 c 0,0 1.31,-100.25 22.35001,-124.97 56.64999,19.01 198,102.97 198,102.97 v 0 0.01 z" fill="#36344e" id="path8-5" />
        <path d="M 565.72998,176.60599 554.61999,206.786 c -10.90997,8 -25.31,9.39 -37.57001,3.66 -18.70001,-8.74001 -43.73001,-22.52 -46.04999,-34.58 l -40.54001,-15.89999 11.25,-72.61 82.28,40.95 c 12.32001,6.13 23.42999,14.50999 32.47998,24.89 5.29999,6.07001 9.88,12.77 11.01001,18.66 l -1.75,4.75999 v 0 -0.01 z" fill="#6c63ff" id="path9-4" />
        <path id="uuid-f7509187-ad0a-44e5-af90-209df38bcefc-224" d="m 344.28,222.36599 c -8.39001,1.00999 -15.69,-2.66 -16.29999,-8.2 -0.60999,-5.54 5.70001,-10.86 14.10001,-11.87 3.35001,-0.45 6.75,-0.07 9.92001,1.13 l 131.09,-10.43001 2.81,26.38 -132.20001,-0.47 c -2.82999,1.92 -6.06,3.11 -9.42001,3.46001 v 0 -2e-5 z" fill="#faafb2" />
        <path d="m 558.31,190.80599 -3.39001,17.47 c -4.27002,11.99001 -11.51001,14.07001 -24.22998,14.50999 -19.39999,0.67999 -45.20001,1.36 -45.35001,0.2 -0.23999,-1.86 -8.47,-34.32001 -2.32001,-48.85001 l 75.29001,16.67 v 0 z" fill="#6c63ff" id="path10-7" />
      </g>
    </g>
  </g>
</svg>
